inDegrees=no
num_controls=7
num_derivatives=13
num_iterations=140
num_multipliers=7
num_parameters=0
num_slacks=7
num_states=26
objective=5.879822
objective_accelerations=0.786443
objective_balance=0.006433
objective_effort=0.527561
objective_height=4.535670
objective_ligament=0.023715
solver_duration=1170.845137
status=Solve_Succeeded
success=true
DataType=double
version=3
OpenSimVersion=4.4-2022-07-23-0e9fedc
endheader
time	/jointset/ground_pelvis/pelvis_tilt/value	/jointset/ground_pelvis/pelvis_tx/value	/jointset/ground_pelvis/pelvis_ty/value	/jointset/hip_r/hip_flexion_r/value	/jointset/hip_r/hip_adduction_r/value	/jointset/hip_r/hip_rotation_r/value	/jointset/back/lumbar_extension/value	/jointset/patellofemoral_r/patellar_flexion_r/value	/jointset/knee_r/knee_flexion_r/value	/jointset/knee_r/knee_adduction_r/value	/jointset/knee_r/knee_rotation_r/value	/jointset/ankle_r/ankle_angle_r/value	/jointset/subtalar_r/subtalar_angle_r/value	/jointset/ground_pelvis/pelvis_tilt/speed	/jointset/ground_pelvis/pelvis_tx/speed	/jointset/ground_pelvis/pelvis_ty/speed	/jointset/hip_r/hip_flexion_r/speed	/jointset/hip_r/hip_adduction_r/speed	/jointset/hip_r/hip_rotation_r/speed	/jointset/back/lumbar_extension/speed	/jointset/patellofemoral_r/patellar_flexion_r/speed	/jointset/knee_r/knee_flexion_r/speed	/jointset/knee_r/knee_adduction_r/speed	/jointset/knee_r/knee_rotation_r/speed	/jointset/ankle_r/ankle_angle_r/speed	/jointset/subtalar_r/subtalar_angle_r/speed	/forceset/tau_hip_flexion_r	/forceset/tau_hip_adduction_r	/forceset/tau_hip_rotation_r	/forceset/tau_knee_flexion_r	/forceset/tau_ankle_angle_r	/forceset/tau_subtalar_angle_r	/forceset/tau_lumbar_extension	lambda_cid13_p0	lambda_cid14_p0	lambda_cid14_p1	lambda_cid14_p2	lambda_cid14_p3	lambda_cid14_p4	lambda_cid14_p5	/jointset/ground_pelvis/pelvis_tilt/accel	/jointset/ground_pelvis/pelvis_tx/accel	/jointset/ground_pelvis/pelvis_ty/accel	/jointset/hip_r/hip_flexion_r/accel	/jointset/hip_r/hip_adduction_r/accel	/jointset/hip_r/hip_rotation_r/accel	/jointset/back/lumbar_extension/accel	/jointset/patellofemoral_r/patellar_flexion_r/accel	/jointset/knee_r/knee_flexion_r/accel	/jointset/knee_r/knee_adduction_r/accel	/jointset/knee_r/knee_rotation_r/accel	/jointset/ankle_r/ankle_angle_r/accel	/jointset/subtalar_r/subtalar_angle_r/accel	gamma_cid13_p0	gamma_cid14_p0	gamma_cid14_p1	gamma_cid14_p2	gamma_cid14_p3	gamma_cid14_p4	gamma_cid14_p5
0.5	-0.1682439389303505	0.003623948794282312	0.7763959903172478	1.018210630854435	-0.2231084849689246	-0.1129214076911779	-0.6614112364983229	1.054635364595631	1.054635364595936	-0.07132066820231388	0.174464164891323	0.3014369548047078	0.1408411322158883	-0.4362667360447306	-0.2244279350235068	-0.6263017073903056	2.197243576480421	-0.04684349806622119	0.2537103213399874	-0.7231133258889438	2.195394379779534	2.195394379779402	-0.4042045266285092	0.003571093662279299	0.5352929500249233	0.1402509567653951	-0.2154301227290293	0.001525606369344761	0.01820262585524359	-0.3150732934101181	0.03162146193483462	0.003448970161951895	0.2528979615344747	-4.106724881333013	-31.93935855227178	-3.972690801258549	0.9161964350727342	-8.876190204345786	-637.5677207434492	66.10812068377265	0.5847600088289847	0.7798316487361509	-0.5177191740873437	-1.473557146259545	-0.1036384071388828	-0.3408957286441808	2.037208040626169	-1.464690564316206	-1.464690564316236	0.5165176872202099	-0.1717519374065566	-0.7276251770796515	-0.322483509595952	-8.508935984307456e-08	9.791353601500116e-08	2.057446327238992e-06	3.34692095308911e-07	-2.660300281941122e-07	-2.107568566894819e-07	1.450149320370073e-06
0.51	-0.1725764006994899	0.001418845362667041	0.7701085417875776	1.04010609527709	-0.2235826391045992	-0.1104037968233002	-0.6685400722325077	1.076512705408297	1.076512705408597	-0.07533719118436367	0.1744939813010083	0.3067523380022101	0.142226130722452	-0.4301502011563242	-0.2165748420162429	-0.6310463345992342	2.181557529964903	-0.04799328231550862	0.2498360344154031	-0.7025814829591882	2.179789245866705	2.179789245866524	-0.3990103945979072	0.002419983649829008	0.5276960856320591	0.1366883434475339	-0.2225097090407663	0.00163043133230094	0.01847971675209738	-0.3213677466637047	0.03133658976706394	0.003959188131168207	0.2594889340278241	-3.350748953065289	-32.40184252652903	-3.957609782660359	1.057175783933908	-8.933481008990633	-643.6784328915279	66.95714821345203	0.6364388890812612	0.7906664039040326	-0.4316217105301027	-1.659867737327051	-0.1212917880182871	-0.4071642658403513	2.072023116540541	-1.651096527635443	-1.651096527643085	0.5346189306991328	-0.082358160082253	-0.7889205990709531	-0.381726392422055	-3.709579234259845e-08	1.913580304684095e-07	2.327546607030876e-06	1.011386062361814e-06	-3.429449441870243e-07	-1.753841170210766e-07	1.773064011842054e-06
0.52	-0.1768454293876443	-0.0007072034834380414	0.7637778895425711	1.061835951367997	-0.2240684197535514	-0.1079242226430827	-0.6754614193979115	1.098225460537278	1.09822546053757	-0.07929902125213073	0.1745131730845807	0.3119891118500554	0.1435737878659313	-0.4235801198586239	-0.2086170179214692	-0.6349424504574948	2.16412191012421	-0.04916880073252351	0.246102983831831	-0.6816156121338774	2.16247724303911	2.162477243038878	-0.3932659437785117	0.001446168560648303	0.5195710800919553	0.132782684148025	-0.2295892953525701	0.001735256295011079	0.01875680764991407	-0.3276621999171745	0.03105171759923783	0.004469406099953515	0.2660799065211298	-2.672850729124189	-32.85956217360302	-3.932463763404567	1.186008088352497	-9.031823126371604	-649.7494775431775	67.83438385230417	0.6754692906870448	0.8007778662385288	-0.3480169039536512	-1.823471811294536	-0.108785240684064	-0.3126484604413076	2.124013619736706	-1.80606434726985	-1.806064347269865	0.6265814449788216	-0.1362929527534917	-0.8332534065269396	-0.3910927059248699	-2.303822625034835e-08	2.063203459562486e-07	2.266957867336295e-06	1.095308763677173e-06	-3.477181174785065e-07	-1.578945667521981e-07	1.797507977414235e-06
0.53	-0.1810466029307392	-0.002753264308567626	0.7574125102332057	1.083383036076565	-0.2245659427179118	-0.1054817911308026	-0.6821710868863093	1.119756771203178	1.119756771203289	-0.08320147986029439	0.1745235926308157	0.3171421280212176	0.1448809190840934	-0.4165836641886713	-0.2005879152645611	-0.6379909646223286	2.145022360696988	-0.05033423108048586	0.2423596290896144	-0.6602676361090264	2.14351510691143	2.143515106911434	-0.3871941907809072	0.0006848911620027604	0.510954262161628	0.128597476344455	-0.2365280680522515	0.00226354678244679	0.01891715802622633	-0.3338723865754983	0.03054054414003339	0.004675464857195041	0.2724597908765857	-2.072462562219592	-33.41803913745034	-4.08084072104871	1.369671290884209	-8.935830277703406	-655.7692144135464	68.32941540011946	0.7224018737883375	0.8049911969672197	-0.2619313951059273	-1.994065745563813	-0.119932534623994	-0.4087983457959746	2.147727008454593	-1.981752599727444	-1.981752599692178	0.6024864480516913	-0.0386719652128475	-0.8876350929296767	-0.4386627652137246	-9.188865924420462e-09	2.203238271841029e-07	2.211680125724756e-06	1.167000399179576e-06	-3.517035877648668e-07	-1.458875874512265e-07	1.832442574391792e-06
0.54	-0.1851756782833553	-0.004718831160817038	0.7510209132377202	1.104730951443478	-0.225075022106253	-0.1030775170390228	-0.688665767131532	1.14109036763696	1.141090367636923	-0.08704221809426005	0.1745278740355801	0.322206628191758	0.1461449126346931	-0.4091604817732432	-0.1925182233454346	-0.6401859876814336	2.124288041784653	-0.05148008553923198	0.2384714997600366	-0.6386181635004139	2.122934396615338	2.122934396615579	-0.3809218689472449	0.0002185404916422647	0.5018678799655423	0.1241551506352429	-0.2434668407519288	0.002791837269568	0.01907750840327971	-0.3400825732337069	0.03002937068074697	0.004881523613866881	0.2788396752320659	-1.549357488584048	-33.97364630443756	-4.221379057124396	1.543706421045837	-8.877568849185407	-661.771430059315	68.84555637227096	0.7608146397816484	0.8088957186824189	-0.1773186828078029	-2.150425708317017	-0.1048700628396371	-0.341603377911801	2.184312936488591	-2.129779180952412	-2.129779180952442	0.6666952121899563	-0.07730760709961215	-0.9271662596781775	-0.442516287051396	4.430139085576459e-09	2.332664705072932e-07	2.162278381992328e-06	1.225159791654878e-06	-3.548175568540709e-07	-1.3994643134879e-07	1.878983827392318e-06
